<svg xmlns="http://www.w3.org/2000/svg" viewBox="0 0 32 32">
  <rect width="32" height="32" rx="6" fill="#FAFAF7"/>
  <defs>
    <linearGradient id="g" x1="50%" y1="100%" x2="50%" y2="0%">
      <stop offset="0%" stop-color="#6B3FE0"/>
      <stop offset="55%" stop-color="#8E5BFF"/>
      <stop offset="100%" stop-color="#7AA0FF"/>
    </linearGradient>
  </defs>
  <path
    d="M21.3 18.7c0 4.3-2.6 6.2-4.6 6.8-.4.1-.7-.4-.5-.8.9-1.3 1.9-3.2 1.9-5 0-2-1.6-4.3-2.9-5.7-.3-.3-.8-.1-.8.3 0 1.4-.3 3.4-1.3 4.9-.2.2-.5.3-.7 0-.3-.4-.6-.9-.9-1.3-.2-.2-.5-.2-.7 0-.7.7-1.8 1.8-1.8 3.2 0 .9.4 1.9.8 2.7.2.4-.2.9-.6.7-1.8-.9-3.9-2.8-3.9-5.9 0-3.1 4.3-7.5 6-11.6.3-.6 1.1-.9 1.6-.5 3.4 2.6 8.4 7.6 8.4 12.2z"
    fill="url(#g)"
  />
</svg>
